<svg width="51" height="42" viewBox="0 0 51 42" fill="none" xmlns="http://www.w3.org/2000/svg">
<path d="M14.3529 6.19098C14.3529 5.55194 14.8709 5.034 15.5099 5.034H42.5581C42.8954 5.034 43.2159 5.18132 43.4357 5.43702C43.6555 5.69284 43.7527 6.03196 43.7018 6.36542L42.5462 13.9445C42.4589 14.5171 41.9658 14.9273 41.4039 14.9273C41.3459 14.9273 41.2872 14.9231 41.2281 14.9139C40.5963 14.8176 40.1623 14.2275 40.2586 13.5958L41.2112 7.34795H15.5099C14.8709 7.34795 14.3529 6.82989 14.3529 6.19098ZM23.1368 25.915H12.8833L8.60841 0.961576C8.51328 0.406098 8.03172 0 7.46802 0H1.15698C0.517939 0 0 0.51794 0 1.15698C0 1.79601 0.517939 2.31395 1.15698 2.31395H6.49243L10.7673 27.2674C10.8639 27.8312 11.353 28.2292 11.9063 28.2292C11.9711 28.2291 12.037 28.2237 12.103 28.2123C12.1076 28.2114 12.1121 28.2107 12.1167 28.2098C12.1849 28.2224 12.2552 28.2288 12.3269 28.2288H23.1368C23.7758 28.2288 24.2938 27.7109 24.2938 27.0718C24.2938 26.4328 23.7758 25.915 23.1368 25.915ZM20.9005 34.1024V36.1555C20.9005 38.0853 19.3305 39.6553 17.4007 39.6553C15.4708 39.6553 13.9008 38.0853 13.9008 36.1555V34.1024C13.9008 32.1725 15.4707 30.6025 17.4004 30.6025C19.3304 30.6025 20.9005 32.1725 20.9005 34.1024ZM18.5866 34.1024C18.5866 33.4484 18.0546 32.9165 17.4007 32.9165H17.4004C16.7467 32.9165 16.2148 33.4484 16.2148 34.1024V36.1555C16.2148 36.8093 16.7467 37.3414 17.4004 37.3414C18.0545 37.3414 18.5866 36.8093 18.5866 36.1555V34.1024ZM50.8401 23.3114C50.1573 28.7962 47.3796 33.687 43.0182 37.0826C39.3478 39.9402 34.9255 41.4511 30.3473 41.4511C29.4854 41.4511 28.6182 41.3975 27.7492 41.2893C27.0223 41.1986 26.2896 41.0674 25.5706 40.8994C25.0881 40.7866 24.7309 40.3791 24.6824 39.886C24.5324 38.3593 24.5526 36.8103 24.7428 35.2824C26.1527 23.9596 36.5114 15.8939 47.8341 17.3041C48.5617 17.3949 49.2945 17.5261 50.0126 17.694C50.4949 17.8069 50.8519 18.2141 50.9005 18.707C51.051 20.2329 51.0307 21.7821 50.8401 23.3114ZM48.661 19.7741C48.2905 19.7048 47.9182 19.6467 47.5477 19.6005C37.4922 18.3489 28.2911 25.5117 27.0389 35.5684C26.9674 36.142 26.9231 36.7187 26.9055 37.2959L37.49 28.0226C37.9704 27.6016 38.7015 27.6497 39.1226 28.1305C39.5436 28.611 39.4954 29.3421 39.0148 29.7631L28.4283 39.0379C33.1651 39.5268 37.8269 38.1914 41.5964 35.2567C45.47 32.2408 47.9374 27.8969 48.5436 23.0254C48.6785 21.9459 48.7175 20.8558 48.661 19.7741Z" fill="#01005B"/>
</svg>
